<svg id="Livello_1" data-name="Livello 1" xmlns="http://www.w3.org/2000/svg" viewBox="0 0 1920 1920"><defs><style>.cls-1{fill:#3388ee;}.cls-2{fill:#35495e;}</style></defs><title>LogoTavola disegno 1</title><path class="cls-1" d="M318.14,175c12.3-25.62,50.94-17.9,53.28,10.43,1.3,15.67,1.83,35.71,3.16,63.84,1.63,34.65,2.5,91.33,1.51,124.55-.61,20.4-4.83,72.45-6.28,90.53-3,37.81-21.54,72.69-52.18,95l-20,14.6,18.24,279.44A24.31,24.31,0,0,0,344,875.88l647.47-104c77.94-12.51,188.22-22.77,274.39-24,38-.54,114.07.28,152.09,1.12,149.87,3.32,288.36,84.3,348.29,221.69h0c30.28,69.43,43.55,146.87,42,230.66l-6,107.92c-9.93,85.84-61.85,164.29-145.66,177.41L1561,1501.89c-51.39,8-225.06,23.7-277,25.93-61.63,2.65-119.82,7.45-170.75,6.29-27.81-.63-37.41-37.25-13.41-51.32l94.48-55.41c117.81-59.93,210.3-95.38,330.65-118.86h0a35.17,35.17,0,0,0,15.16-31.36L1527.87,1098,945.19,1148l22.71,504.08,530.36-34.37,26.25,281.88a14.05,14.05,0,0,1-16.64,15.11s-318.11-65.49-480.35-98.29c-149.62-30.25-406.3-95.72-406.3-95.72l34.88-566.42-386.11-33A185.8,185.8,0,0,1,100,934.12l4.54-407.32a271.65,271.65,0,0,1,26.25-113.51h0A164.06,164.06,0,0,1,216,332.2l8.31-3.46A98.26,98.26,0,0,0,277,276.52l40.57-100.17Q317.83,175.68,318.14,175Z"/><path class="cls-2" d="M1053.44,9a249,249,0,0,0-68.78,23.12c-27.67,14-62.72,40.36-54,40.36,6.83,0,66.51,8,91.91,12.31,97.58,16.87,178.3,41.5,180.2,55.33,2.65,18.57-92.66,41.12-216.59,51-72,5.69-164.09,1.14-215.44-10.42-7.58-1.7-11.18-1.32-25.58,2.66-34.49,9.85-72.2,33.34-74.85,46.8-1.33,7.39,3,15.73,11.56,22,16.48,11.94,68,24.82,123.54,30.88l21.8,2.47v29.37c.18,148,98.91,277,228.33,298.82,27.85,4.55,71.62,3,97-3.6C1254.68,583.32,1331.8,493.69,1354,376.21c4.73-25.58,5.68-83.56,1.89-110.47-10.8-74.09-40-133.78-89.06-182.85-38.65-38.47-76.55-59.88-126.2-71.25C1118.81,6.52,1073,5.2,1053.44,9Z"/></svg>